<?xml version="1.0" encoding="UTF-8" ?>
<!DOCTYPE svg PUBLIC "-//W3C//DTD SVG 1.1//EN" "http://www.w3.org/Graphics/SVG/1.1/DTD/svg11.dtd">
<svg width="455.25pt" height="123.75pt" viewBox="0 0 631 171" version="1.1" xmlns="http://www.w3.org/2000/svg">
<g id="#fefdf9ff">
<path fill="#fefdf9" opacity="1.00" d=" M 328.38 69.63 C 328.46 69.52 328.63 69.31 328.72 69.21 C 328.63 69.31 328.46 69.52 328.38 69.63 Z" />
</g>
<g id="#000000ff">
<path fill="#000000" opacity="1.00" d=" M 474.46 1.32 C 477.12 0.77 479.86 1.44 482.56 1.50 C 483.64 2.79 485.40 3.83 485.31 5.73 C 486.63 9.70 481.57 11.43 480.92 14.91 C 480.31 17.72 477.30 18.65 475.39 20.37 C 473.84 21.51 472.69 23.29 470.78 23.82 C 469.49 23.92 468.41 23.03 467.24 22.66 C 467.09 17.22 467.51 11.26 471.25 6.96 C 471.02 6.50 470.58 5.56 470.36 5.10 C 471.76 3.88 473.21 2.70 474.46 1.32 Z" />
<path fill="#000000" opacity="1.00" d=" M 349.11 18.16 C 350.69 14.53 354.58 12.19 358.51 12.46 C 361.69 13.89 361.45 17.84 362.64 20.63 C 361.76 21.69 360.75 22.76 360.59 24.19 C 360.13 27.43 358.22 30.16 357.10 33.18 C 355.52 34.91 353.80 36.54 352.62 38.60 C 350.98 41.28 346.89 41.82 346.17 45.18 C 345.39 48.90 341.41 50.55 339.85 53.86 C 338.71 56.30 336.21 57.60 334.71 59.75 C 332.76 62.97 329.42 65.29 328.72 69.21 C 328.63 69.31 328.46 69.52 328.38 69.63 C 328.46 69.52 328.63 69.31 328.72 69.21 C 331.48 67.52 332.51 63.88 335.76 62.82 C 341.53 60.21 344.96 54.20 350.85 51.89 C 357.54 46.51 364.42 41.29 371.68 36.72 C 373.28 35.00 375.67 34.72 377.69 33.73 C 379.65 32.44 381.63 31.07 383.97 30.56 C 386.92 31.19 390.96 32.32 391.24 35.94 C 392.73 38.94 389.74 41.18 388.56 43.65 C 387.12 46.76 383.21 47.84 382.26 51.31 C 381.33 54.60 376.90 54.64 375.64 57.65 C 374.69 60.22 371.85 61.09 370.21 63.14 C 371.33 68.21 370.68 73.44 369.53 78.43 C 366.12 79.63 367.41 83.99 364.44 85.60 C 363.01 89.34 361.26 93.22 361.51 97.32 C 361.09 99.43 363.12 100.76 364.13 102.32 C 368.25 101.40 372.68 101.65 376.48 99.57 C 381.97 96.69 388.69 97.36 394.06 94.12 C 396.65 92.49 399.81 92.02 402.35 90.29 C 403.21 88.70 402.67 86.85 402.58 85.14 C 406.21 82.23 407.61 76.68 412.73 75.74 C 417.23 72.63 424.42 69.41 428.81 74.34 C 428.78 74.92 428.72 76.07 428.69 76.65 C 426.50 79.67 424.71 83.35 421.26 85.12 C 418.58 86.46 417.16 89.52 414.02 90.09 C 411.71 90.79 414.10 93.26 415.31 93.80 C 418.19 93.77 421.29 94.31 423.94 92.92 C 425.69 91.95 427.74 92.21 429.65 91.83 C 431.52 90.37 433.31 88.29 435.84 88.14 C 438.20 88.69 441.14 90.16 443.27 88.29 C 444.82 86.79 447.04 86.66 448.95 85.87 C 452.89 84.56 456.63 82.73 460.67 81.74 C 464.66 78.89 469.53 77.37 473.12 74.01 C 476.53 74.06 480.10 78.26 477.69 81.50 C 474.81 83.71 472.40 86.46 470.75 89.68 C 468.24 91.35 466.71 93.82 465.48 96.50 C 461.27 101.25 457.07 106.27 455.38 112.52 C 455.00 114.54 453.40 115.85 452.14 117.34 C 451.59 119.82 451.69 122.39 451.35 124.91 C 455.47 125.63 459.56 126.53 463.67 127.31 C 464.96 127.65 465.50 129.04 466.30 129.98 C 464.34 131.86 461.77 133.25 459.05 132.17 C 455.14 133.32 451.05 132.42 447.06 133.10 C 444.70 132.82 442.75 131.03 440.37 130.61 C 437.92 128.58 436.77 125.34 436.64 122.20 C 438.39 118.80 438.70 114.28 442.71 112.64 C 445.54 104.01 451.66 97.02 457.19 90.00 C 456.67 89.67 455.62 89.00 455.09 88.67 C 452.35 90.42 449.17 91.11 446.13 92.08 C 443.73 94.80 439.59 94.44 436.81 96.75 C 433.09 96.16 429.77 97.91 426.57 99.52 C 423.37 99.75 420.15 99.87 416.99 100.49 C 414.57 99.97 412.13 99.58 409.67 99.34 C 408.02 97.83 405.84 97.14 403.81 96.34 C 401.63 96.95 399.49 97.73 397.21 97.87 C 396.63 99.09 395.84 100.30 394.39 100.48 C 390.64 101.54 387.27 103.65 383.39 104.24 C 382.18 106.34 379.45 105.47 377.65 106.57 C 374.31 108.85 369.98 108.26 366.58 110.50 C 361.67 110.73 356.64 109.38 352.52 106.59 C 350.98 101.25 351.23 95.68 350.68 90.20 C 351.51 86.23 354.06 82.92 354.86 78.95 C 357.38 77.87 358.99 74.79 358.38 72.10 C 358.76 72.04 359.53 71.92 359.91 71.86 C 359.27 69.44 358.21 67.10 358.25 64.56 C 357.77 59.74 361.27 55.68 364.86 52.95 C 364.71 52.49 364.39 51.57 364.24 51.12 C 366.31 48.91 369.23 47.97 371.88 46.69 C 371.97 46.27 372.14 45.44 372.23 45.03 C 367.83 45.55 364.99 49.15 361.31 51.19 C 359.00 52.48 356.82 54.04 355.12 56.09 C 352.83 58.85 349.73 60.73 347.13 63.17 C 344.71 65.52 340.82 65.89 339.03 68.98 C 337.33 71.90 334.07 73.35 332.18 76.16 C 328.37 78.98 324.81 82.17 321.60 85.65 C 320.14 88.15 318.25 90.38 315.61 91.67 C 314.35 92.16 314.53 93.60 314.40 94.68 C 310.74 95.91 310.21 100.34 306.95 101.97 C 304.86 102.87 304.54 105.53 302.58 106.59 C 300.72 107.74 299.17 109.30 297.57 110.78 C 293.17 112.67 288.01 107.89 289.43 103.38 C 289.84 102.05 289.41 100.49 290.36 99.35 C 292.65 96.21 293.77 92.24 296.77 89.71 C 297.31 87.24 298.21 84.84 300.14 83.11 C 301.94 81.65 301.90 79.07 303.54 77.52 C 308.18 73.49 309.91 67.02 315.31 63.69 C 315.20 60.88 318.37 59.73 320.11 58.06 C 323.72 51.94 328.81 46.76 332.91 40.90 C 339.27 34.12 345.97 27.13 349.11 18.16 M 419.30 78.29 C 418.04 78.61 416.70 80.19 417.26 81.52 C 418.70 82.18 421.07 78.96 419.30 78.29 Z" />
<path fill="#000000" opacity="1.00" d=" M 244.37 14.60 C 247.46 14.28 250.56 13.85 253.66 14.19 C 257.23 17.72 256.29 23.63 253.06 27.06 C 250.62 28.95 247.82 30.45 245.81 32.83 C 237.36 38.97 234.21 49.37 229.25 58.09 C 227.80 58.47 226.28 58.64 225.10 59.73 C 222.10 59.56 222.01 56.26 221.18 54.07 C 223.53 51.90 222.40 48.58 223.25 45.82 C 225.01 38.81 229.16 32.78 232.55 26.49 C 234.68 24.29 236.82 22.07 238.40 19.43 C 239.59 16.86 243.09 17.07 244.37 14.60 Z" />
<path fill="#000000" opacity="1.00" d=" M 610.62 23.64 C 614.78 21.15 619.39 24.12 623.44 25.44 C 625.18 27.40 626.14 30.10 628.67 31.37 C 628.99 32.89 629.35 34.41 629.77 35.91 C 626.32 39.41 626.76 44.88 623.62 48.62 C 620.53 51.24 618.65 55.06 614.87 56.88 C 611.45 61.12 607.45 65.13 602.41 67.43 C 600.23 69.33 598.17 71.44 595.35 72.36 C 592.37 73.07 591.05 76.38 588.12 77.09 C 583.77 78.22 580.39 81.42 577.73 84.88 C 576.98 88.98 576.58 93.15 575.41 97.17 C 576.38 100.66 575.94 104.35 577.07 107.80 C 578.90 113.91 578.89 120.36 578.38 126.65 C 576.54 127.27 577.31 129.55 576.90 131.01 C 576.79 135.32 575.07 139.30 574.54 143.53 C 572.82 146.34 571.87 150.82 567.92 151.10 C 564.03 151.77 561.12 148.68 558.72 146.13 C 557.19 146.00 555.67 145.84 554.16 145.68 C 553.62 143.77 555.42 142.68 556.42 141.36 C 557.11 140.02 557.30 138.37 558.71 137.53 C 559.42 134.81 560.21 132.10 560.71 129.33 C 563.10 128.33 564.20 125.83 565.55 123.79 C 566.48 119.64 565.62 115.42 565.92 111.23 C 565.07 107.73 565.00 104.04 563.17 100.85 C 563.58 98.58 563.48 96.30 562.94 94.06 C 561.59 93.72 560.26 93.38 558.93 93.00 C 554.16 95.91 548.50 96.72 543.80 99.72 C 538.20 102.44 531.93 102.12 526.03 103.61 C 523.48 103.20 520.91 102.95 518.34 102.70 C 515.25 101.18 512.40 99.24 509.81 96.98 C 507.05 98.30 504.55 101.46 501.20 100.10 C 498.32 99.87 498.88 96.56 499.65 94.70 C 503.04 94.64 505.76 92.73 508.46 90.92 C 507.78 87.20 508.79 83.68 510.41 80.37 C 512.85 78.49 515.72 77.12 517.45 74.45 C 520.50 71.97 523.86 69.34 528.01 69.38 C 530.40 68.97 532.02 71.40 532.63 73.40 C 533.29 75.69 531.42 77.60 529.66 78.70 C 526.75 82.95 524.21 88.11 519.32 90.34 C 519.35 91.57 519.37 92.80 519.30 94.02 C 523.14 96.34 527.67 95.46 531.86 94.94 C 535.89 94.39 538.81 91.01 542.89 90.68 C 547.03 90.30 550.25 87.23 554.26 86.41 C 557.90 85.92 561.02 83.82 564.26 82.24 C 567.71 77.44 569.76 71.85 572.72 66.75 C 573.55 66.22 574.40 65.69 575.25 65.17 C 577.90 57.91 582.94 51.76 588.15 46.14 C 589.21 43.69 590.26 40.97 593.12 40.16 C 594.59 34.26 600.68 31.50 603.45 26.41 C 605.62 24.99 608.22 24.54 610.62 23.64 M 614.46 32.15 C 613.52 34.59 611.24 35.82 609.25 37.25 C 607.12 39.45 604.98 41.64 602.91 43.90 C 600.17 50.04 595.61 55.21 591.23 60.33 C 590.38 62.10 589.67 63.97 588.24 65.37 C 588.46 65.73 588.89 66.43 589.10 66.78 C 590.75 65.57 592.68 64.64 593.86 62.90 C 595.01 61.08 597.37 60.96 599.20 60.17 C 600.58 57.95 602.00 55.59 604.53 54.55 C 611.81 50.62 615.00 42.66 619.23 36.00 C 618.72 34.69 618.21 33.38 617.72 32.06 C 616.63 32.07 615.54 32.10 614.46 32.15 Z" />
<path fill="#000000" opacity="1.00" d=" M 96.95 45.01 C 97.83 43.70 99.44 42.95 101.01 43.11 C 103.66 42.86 104.94 45.71 106.67 47.23 C 106.60 50.62 105.36 53.76 103.26 56.42 C 102.70 59.40 100.01 61.10 98.61 63.63 C 96.56 67.16 93.22 69.57 90.48 72.51 C 85.49 80.98 77.93 87.39 72.45 95.45 C 71.08 96.78 68.98 97.32 68.09 99.12 C 66.73 101.69 63.60 103.03 63.13 106.09 C 62.66 106.40 61.73 107.02 61.26 107.33 C 61.09 107.88 60.75 108.97 60.57 109.52 C 57.12 110.76 56.50 114.71 54.10 117.09 C 52.80 119.11 50.35 120.07 49.34 122.32 C 48.26 125.22 44.18 125.30 43.19 128.14 C 42.24 131.28 38.90 132.65 37.24 135.35 C 34.94 138.98 31.04 141.42 29.61 145.63 C 28.73 149.08 24.38 150.23 23.64 153.75 C 23.39 155.81 21.34 157.10 21.02 159.12 C 20.81 162.21 18.83 164.73 17.11 167.17 C 13.21 168.31 9.22 169.26 5.18 169.80 C 1.60 166.30 1.52 159.57 5.14 156.01 C 6.96 150.05 11.58 145.78 14.40 140.37 C 17.09 137.07 19.30 133.37 22.41 130.42 C 23.84 128.54 24.80 126.15 27.07 125.09 C 28.47 124.47 28.98 122.99 29.85 121.86 C 32.08 120.48 34.05 118.55 35.20 116.18 C 37.37 111.78 42.75 110.19 44.54 105.51 C 47.97 101.10 53.03 98.16 56.66 93.86 C 56.64 93.46 56.59 92.65 56.56 92.24 C 58.79 91.44 61.11 90.47 62.31 88.27 C 63.55 85.94 67.28 85.19 66.17 81.93 C 63.45 81.42 62.59 84.86 60.05 85.05 C 57.48 85.55 55.83 87.89 53.25 88.36 C 48.63 89.61 44.36 93.70 39.32 91.86 C 38.91 90.91 38.49 89.97 38.05 89.04 C 38.73 89.00 40.08 88.93 40.75 88.89 C 41.98 85.89 45.14 84.93 47.96 84.00 C 50.16 83.50 51.07 81.00 53.22 80.40 C 57.13 78.91 60.82 76.77 63.80 73.81 C 67.27 72.67 69.98 70.08 72.77 67.77 C 74.75 65.63 77.89 65.18 79.79 62.91 C 79.71 62.50 79.56 61.67 79.49 61.26 C 83.65 59.34 86.29 55.46 90.24 53.24 C 92.04 50.15 94.82 47.85 96.95 45.01 Z" />
<path fill="#000000" opacity="1.00" d=" M 131.34 86.39 C 134.14 83.88 139.04 84.96 140.94 88.09 C 145.00 89.52 149.65 89.42 153.33 91.77 C 155.70 95.25 153.69 99.43 151.03 102.10 C 148.41 104.47 146.52 107.71 146.31 111.29 C 146.11 113.61 143.44 115.76 145.00 118.06 C 145.40 119.19 146.78 119.85 147.92 119.65 C 154.07 118.85 160.69 119.26 166.25 116.10 C 171.20 115.20 177.35 115.03 180.27 110.23 C 181.00 107.77 179.78 104.76 181.67 102.66 C 186.69 96.25 193.96 91.36 202.13 90.30 C 204.13 90.44 205.87 91.56 207.69 92.28 C 208.38 94.02 209.87 95.85 208.96 97.79 C 207.66 101.39 203.34 102.33 201.47 105.46 C 198.24 107.92 194.79 110.36 192.78 113.99 C 193.38 115.85 193.72 117.78 194.20 119.68 C 197.90 123.75 203.46 126.46 209.03 126.21 C 213.34 126.30 217.49 127.67 221.77 128.10 C 223.83 128.06 224.49 130.90 223.05 132.08 C 220.76 134.13 217.56 132.68 214.86 133.71 C 208.99 133.08 202.90 133.43 197.20 131.77 C 194.72 130.33 191.62 129.40 190.15 126.77 C 185.98 125.50 183.61 121.60 181.84 117.88 C 177.21 118.87 172.70 120.65 168.20 122.21 C 166.02 122.80 164.83 125.06 162.62 125.62 C 156.80 126.98 150.92 128.21 145.00 128.91 C 140.65 128.64 134.13 128.19 133.23 122.84 C 131.47 119.43 133.10 115.72 133.15 112.14 C 134.25 107.74 133.67 101.61 138.79 99.63 C 139.09 98.45 139.41 97.29 139.77 96.13 C 138.54 95.05 137.17 93.23 135.31 94.09 C 133.60 95.56 132.25 97.44 131.95 99.73 C 129.66 101.27 128.62 103.88 127.05 106.04 C 124.00 107.90 121.38 110.40 119.44 113.41 C 117.63 114.66 116.01 116.16 115.18 118.25 C 111.81 119.22 108.83 121.11 105.67 122.56 C 101.83 126.73 95.63 126.27 90.53 125.52 C 89.39 124.06 87.93 122.75 87.59 120.85 C 87.76 118.65 87.89 116.43 88.18 114.24 C 90.15 111.16 91.00 107.29 93.82 104.82 C 97.61 102.72 100.08 99.06 103.35 96.33 C 106.79 94.56 110.65 93.87 114.45 93.39 C 116.57 91.84 119.24 92.00 121.73 92.10 C 123.13 93.60 123.38 96.97 125.85 96.87 C 127.74 93.41 129.95 90.10 131.34 86.39 M 197.28 99.33 C 196.20 99.46 194.89 100.70 195.46 101.84 C 196.75 103.01 199.08 99.85 197.28 99.33 M 112.22 102.20 C 110.33 103.25 109.65 105.62 107.74 106.72 C 105.90 108.56 102.90 110.18 102.94 113.08 C 107.15 113.91 110.47 110.83 113.59 108.54 C 116.42 106.13 119.76 103.79 120.84 100.03 C 117.97 100.87 115.33 102.97 112.22 102.20 Z" />
</g>
</svg>
